<svg width="388" height="95"><defs id="SvgjsDefs1138"></defs><g id="main_text" rel="mainfill" name="main_text" feature="main_text" xmlns:name="mainText_mainfill" groupname="main_text" fill="#c48e38" transform="translate(85.95105582879758, 12.339586571665222) scale(1.8844411985950944)"><path d="M0.55664 20.478475 l1.2305 -0.74219 q1.298828125 2.392578125 2.998046875 2.392578125 q0.732421875 0 1.376953125 -0.341796875 t0.97656 -0.9082 t0.33203 -1.2109 q0 -0.72265625 -0.48828125 -1.42578125 q-0.68359375 -0.966796875 -2.490234375 -1.97265625 q-1.81640625 -1.3671875 -2.24609375 -1.982421875 q-0.771484375 -1.015625 -0.771484375 -2.216796875 q0 -0.947265625 0.44921875 -1.71875 t1.2744 -1.2256 t1.792 -0.4541 q1.015625 0 1.904296875 0.5126953125 t1.8848 1.8701 l-1.1816 0.88867 q-0.810546875 -1.07421875 -1.38671875 -1.420898438 t-1.2598 -0.34668 q-0.869140625 0 -1.42578125 0.5322265625 t-0.55664 1.3037 q0 0.46875 0.1953125 0.91796875 t0.72266 0.95703 q0.283203125 0.283203125 1.875 1.455078125 q1.875 1.38671875 2.573242188 2.294921875 t0.69824 1.9922 q0 1.58203125 -1.196289063 2.744140625 t-2.9053 1.1621 q-1.328125 0 -2.40234375 -0.703125 t-1.9727 -2.3535 z M16.621096875 12.187375 q2.470703125 0 4.1015625 1.787109375 q1.50390625 1.630859375 1.50390625 3.876953125 q0.01953125 5.546875 0 5.634765625 l-1.4551 0 l0 -2.4316 q-1.142578125 2.12890625 -4.150390625 2.3828125 q-2.4609375 0 -4.018554688 -1.674804688 t-1.5576 -3.9111 q0 -2.2265625 1.474609375 -3.8671875 q1.630859375 -1.796875 4.1015625 -1.796875 z M16.621096875 13.535375 q-1.708984375 0 -2.939453125 1.26953125 t-1.2305 3.0664 q0 1.162109375 0.6298828125 2.236328125 t2.1338 1.8164 q3.76953125 0.83984375 5.361328125 -3.427734375 q0.087890625 -1.3671875 -0.29296875 -2.6171875 q-0.2734375 -0.56640625 -0.751953125 -1.07421875 q-1.201171875 -1.26953125 -2.91015625 -1.26953125 z M24.375040625 18.525375 l0 -1.2891 q0.15625 -0.966796875 0.44921875 -1.572265625 q0.68359375 -1.6796875 1.8359375 -2.4609375 t1.9141 -0.78125 q0.56640625 0 1.2109375 0.37109375 l-0.71289 1.1523 q-0.908203125 -0.33203125 -1.801757813 0.537109375 t-1.2354 1.8945 q-0.25390625 0.908203125 -0.25390625 3.408203125 l0 3.623 l-1.4063 0 l0 -4.8828 z M40.859828125 21.347675 q0.87890625 -1.46484375 1.0546875 -2.880859375 q0 -10.16601563 0 -10.14648438 l-1.3672 0 l0 5.9766 q-0.869140625 -1.064453125 -1.943359375 -1.586914063 t-2.3535 -0.52246 q-2.265625 0 -3.876953125 1.650390625 t-1.6113 4.0039 q0 2.314453125 1.62109375 3.955078125 t3.9063 1.6406 q1.30859375 0 2.456054688 -0.5029296875 t2.1143 -1.5869 z M36.406228125 22.119175 q-1.162109375 0 -2.133789063 -0.5712890625 t-1.5479 -1.5869 t-0.57617 -2.168 q0 -1.1328125 0.5810546875 -2.172851563 t1.5625 -1.6113 t2.0947 -0.57129 q1.1328125 0 2.1484375 0.5712890625 t1.5625 1.5527 t0.54688 2.1924 q0 1.865234375 -1.23046875 3.115234375 t-3.0078 1.25 z M49.794925 12.187375 q2.470703125 0 4.1015625 1.787109375 q1.50390625 1.630859375 1.50390625 3.876953125 q0.01953125 5.546875 0 5.634765625 l-1.4551 0 l0 -2.4316 q-1.142578125 2.12890625 -4.150390625 2.3828125 q-2.4609375 0 -4.018554688 -1.674804688 t-1.5576 -3.9111 q0 -2.2265625 1.474609375 -3.8671875 q1.630859375 -1.796875 4.1015625 -1.796875 z M49.794925 13.535375 q-1.708984375 0 -2.939453125 1.26953125 t-1.2305 3.0664 q0 1.162109375 0.6298828125 2.236328125 t2.1338 1.8164 q3.76953125 0.83984375 5.361328125 -3.427734375 q0.087890625 -1.3671875 -0.29296875 -2.6171875 q-0.2734375 -0.56640625 -0.751953125 -1.07421875 q-1.201171875 -1.26953125 -2.91015625 -1.26953125 z M57.54886875 18.525375 l0 -1.2891 q0.15625 -0.966796875 0.44921875 -1.572265625 q0.68359375 -1.6796875 1.8359375 -2.4609375 t1.9141 -0.78125 q0.56640625 0 1.2109375 0.37109375 l-0.71289 1.1523 q-0.908203125 -0.33203125 -1.801757813 0.537109375 t-1.2354 1.8945 q-0.25390625 0.908203125 -0.25390625 3.408203125 l0 3.623 l-1.4063 0 l0 -4.8828 z  M69.72655 8.925375 l8.3008 0 l0 1.4258 l-6.8555 0 l0 4.5313 l4.1797 0 l0 1.4063 l-4.1797 0 l0 5.6836 l6.7969 0 l0 1.4355 l-8.2422 0 l0 -14.482 z M80.654259375 19.365275 l-0.019531 -1.1426 q-0.029296875 -0.83984375 0.068359375 -1.42578125 q0.21484375 -1.845703125 0.9375 -2.705078125 q0.703125 -0.751953125 1.435546875 -1.162109375 q1.2109375 -0.517578125 2.763671875 -0.48828125 q1.2109375 0 2.241210938 0.6103515625 t1.4697 1.6406 t0.43945 3.2275 l0 5.5078 l-1.3672 0 l0 -5.1074 q0 -1.85546875 -0.15625 -2.48046875 q-0.244140625 -1.064453125 -0.966796875 -1.508789063 t-2.1387 -0.44434 q-1.25 0 -2.2265625 0.72265625 t-0.9082 1.9727 q-0.185546875 0.80078125 -0.185546875 2.919921875 l0 3.9258 l-1.3867 0 l0 -4.0625 z M96.787084375 21.914075 q-1.015625 0.546875 -1.9921875 0.087890625 q-1.19140625 -0.908203125 -1.1328125 -2.587890625 l0 -4.5313 l2.5391 0 l0 -1.1816 l-2.5488 0 l0 -5.1758 l-1.3867 0 l0 11.123 q-0.01953125 1.171875 0.537109375 2.1484375 q0.91796875 1.552734375 2.5 1.640625 q0.83984375 0.029296875 1.9140625 -0.380859375 q-0.166015625 -0.41015625 -0.4296875 -1.142578125 z M108.427859375 19.619175 l1.1523 0.61523 q-0.556640625 1.123046875 -1.30859375 1.806640625 t-1.6895 1.04 t-2.1191 0.35645 q-2.6171875 0 -4.091796875 -1.713867188 t-1.4746 -3.8721 q0 -2.041015625 1.25 -3.6328125 q1.58203125 -2.03125 4.248046875 -2.03125 q2.724609375 0 4.365234375 2.080078125 q1.162109375 1.46484375 1.171875 3.65234375 l-9.6191 0 q0.0390625 1.875 1.19140625 3.071289063 t2.8418 1.1963 q0.8203125 0 1.591796875 -0.2880859375 t1.3135 -0.75684 t1.1768 -1.5234 z M108.427859375 16.738275 q-0.2734375 -1.103515625 -0.80078125 -1.762695313 t-1.3965 -1.0645 t-1.8262 -0.40527 q-1.572265625 0 -2.705078125 1.015625 q-0.8203125 0.7421875 -1.240234375 2.216796875 l7.9688 0 z M111.972696875 18.525375 l0 -1.2891 q0.15625 -0.966796875 0.44921875 -1.572265625 q0.68359375 -1.6796875 1.8359375 -2.4609375 t1.9141 -0.78125 q0.56640625 0 1.2109375 0.37109375 l-0.71289 1.1523 q-0.908203125 -0.33203125 -1.801757813 0.537109375 t-1.2354 1.8945 q-0.25390625 0.908203125 -0.25390625 3.408203125 l0 3.623 l-1.4063 0 l0 -4.8828 z M119.414084375 14.316375 q-0.87890625 1.46484375 -1.0546875 2.880859375 q0 10.16601563 0 10.14648438 l1.3672 0 l0 -5.9766 q0.869140625 1.064453125 1.943359375 1.586914063 t2.3535 0.52246 q2.265625 0 3.876953125 -1.650390625 t1.6113 -4.0039 q0 -2.314453125 -1.62109375 -3.955078125 t-3.9063 -1.6406 q-1.30859375 0 -2.456054688 0.5029296875 t-2.1143 1.5869 z M123.867184375 13.545375 q1.162109375 0 2.133789063 0.5712890625 t1.5479 1.5869 t0.57617 2.168 q0 1.1328125 -0.5810546875 2.172851563 t-1.5625 1.6113 t-2.0947 0.57129 q-1.1328125 0 -2.1484375 -0.5712890625 t-1.5625 -1.5527 t-0.54688 -2.1924 q0 -1.865234375 1.23046875 -3.115234375 t3.0078 -1.25 z M131.7480875 18.525375 l0 -1.2891 q0.15625 -0.966796875 0.44921875 -1.572265625 q0.68359375 -1.6796875 1.8359375 -2.4609375 t1.9141 -0.78125 q0.56640625 0 1.2109375 0.37109375 l-0.71289 1.1523 q-0.908203125 -0.33203125 -1.801757813 0.537109375 t-1.2354 1.8945 q-0.25390625 0.908203125 -0.25390625 3.408203125 l0 3.623 l-1.4063 0 l0 -4.8828 z M138.808575 8.310375 q0.46875 0 0.8056640625 0.33203125 t0.33691 0.80078 t-0.33691 0.80566 t-0.80566 0.33691 t-0.80078 -0.33691 t-0.33203 -0.80566 t0.33203 -0.80078 t0.80078 -0.33203 z M138.124975 12.714375 l1.377 0 l0 10.713 l-1.377 0 l0 -10.713 z M147.7344125 13.632375 l-0.87891 0.91797 q-1.11328125 -1.07421875 -2.158203125 -1.07421875 q-0.673828125 0 -1.15234375 0.439453125 t-0.47852 1.0449 q0 0.5078125 0.400390625 0.9765625 q0.390625 0.498046875 1.650390625 1.142578125 q1.54296875 0.791015625 2.08984375 1.533203125 q0.537109375 0.751953125 0.537109375 1.689453125 q0 1.30859375 -0.9228515625 2.221679688 t-2.3096 0.91309 q-0.927734375 0 -1.772460938 -0.3955078125 t-1.3916 -1.1084 l0.86914 -0.98633 q1.0546875 1.19140625 2.236328125 1.19140625 q0.8203125 0 1.401367188 -0.5322265625 t0.58105 -1.2451 q0 -0.595703125 -0.380859375 -1.0546875 t-1.7285 -1.1523 q-1.455078125 -0.732421875 -1.97265625 -1.474609375 q-0.52734375 -0.72265625 -0.52734375 -1.66015625 q0 -1.220703125 0.8349609375 -2.026367188 t2.0947 -0.80566 q1.474609375 0 2.978515625 1.4453125 z M159.1798125 19.619175 l1.1523 0.61523 q-0.556640625 1.123046875 -1.30859375 1.806640625 t-1.6895 1.04 t-2.1191 0.35645 q-2.6171875 0 -4.091796875 -1.713867188 t-1.4746 -3.8721 q0 -2.041015625 1.25 -3.6328125 q1.58203125 -2.03125 4.248046875 -2.03125 q2.724609375 0 4.365234375 2.080078125 q1.162109375 1.46484375 1.171875 3.65234375 l-9.6191 0 q0.0390625 1.875 1.19140625 3.071289063 t2.8418 1.1963 q0.8203125 0 1.591796875 -0.2880859375 t1.3135 -0.75684 t1.1768 -1.5234 z M159.1798125 16.738275 q-0.2734375 -1.103515625 -0.80078125 -1.762695313 t-1.3965 -1.0645 t-1.8262 -0.40527 q-1.572265625 0 -2.705078125 1.015625 q-0.8203125 0.7421875 -1.240234375 2.216796875 l7.9688 0 z"></path></g><g id="slogan_text" rel="mainfill" name="slogan_text" feature="slogan_text" xmlns:name="sloganText_mainfill" groupname="slogan_text" fill="#b69459" transform="translate(85.8436024994893, 59.26291920683504) scale(1.137067133684589)"><path d="M7.9831 24.11864 c3.8305 0 6.9492 -3.0337 6.9492 -6.8981 c0 -3.8475 -3.1186 -6.8983 -6.9492 -6.8983 c-3.8475 0 -6.9661 3.0508 -6.9661 6.8983 c0 3.8644 3.1186 6.8981 6.9661 6.8981 z M7.9831 22.8307 c-3.0847 0 -5.6441 -2.5085 -5.6441 -5.6102 s2.5593 -5.6102 5.6441 -5.6102 c3.0846 0 5.61 2.5085 5.61 5.6102 s-2.5254 5.6102 -5.61 5.6102 z M24.91505254237288 23.72898 c0.016949 0.15238 -0.016784 0.27102 -0.15238 0.27102 l-0.72881 0 c-0.30508 0 -0.45763 -0.20322 -0.45763 -0.47441 l0 -4.678 c0 -1.2881 -0.81356 -2.1863 -2.3051 -2.1863 c-1.2544 0 -2.2205 0.62695 -3.0171 1.4236 l0 5.6949 c0 0.11864 -0.084746 0.22017 -0.20339 0.22017 l-0.89831 0 c-0.11864 0 -0.18644 -0.10153 -0.18644 -0.22017 l0 -7.9661 c0 -0.10169 0.084746 -0.20339 0.18644 -0.20339 l0.64407 0 c0.27119 0 0.44068 0.27119 0.45763 0.49153 l0 0.69492 c0.71186 -0.62712 1.7458 -1.3051 3.1356 -1.3051 c1.7458 0 3.4576 1.0339 3.4576 3.1863 l0 3.8136 c0.016949 0.44085 0.033898 0.84746 0.067797 1.2375 z M28.101511864406778 10.441 l-0.84729 0 c-0.15254 0 -0.22034 0.067797 -0.22034 0.22034 l0 12.864 c0 0.28797 0.15254 0.47441 0.45763 0.47441 l0.61 0 c0.13559 0 0.22034 -0.08458 0.22034 -0.23712 l0 -13.102 c0 -0.15254 -0.084746 -0.22034 -0.22034 -0.22034 z M38.38987288135593 15.6102 c0.15254 0 0.22051 0.084912 0.15287 0.23746 l-3.4746 7.1695 c-1.5763 3.2371 -3.0847 5.2202 -4 6.1693 c-0.11881 0.11864 -0.25441 0.050847 -0.3561 -0.067797 l-0.50847 -0.49153 c-0.13559 -0.13559 -0.11881 -0.25424 0.016784 -0.40678 c1.1017 -1.2373 2.6441 -3.3729 3.4746 -5.3049 l-3.5932 -7.0847 c-0.067797 -0.13559 0 -0.22034 0.11864 -0.22034 l1.0508 0 c0.10169 0 0.15254 0.050847 0.20339 0.13543 l2.8983 5.8814 l2.7797 -5.8475 c0.050847 -0.11864 0.11864 -0.16949 0.23729 -0.16949 l1 0 z  M49.32182542372882 23.50864 c0.050847 0.10169 -0.050681 0.18678 -0.16933 0.25458 c-0.3222 0.16949 -0.89847 0.32169 -1.5425 0.32169 c-1.7627 0 -2.1864 -1.0169 -2.1864 -3.1186 l0 -4.1186 l-1.0508 0 c-0.11864 0 -0.20339 -0.067797 -0.20339 -0.20339 l0 -0.25424 c0 -0.10169 0.016949 -0.16949 0.11864 -0.23729 c1.0339 -0.49136 1.5085 -1 1.9322 -3.0169 c0.033898 -0.10169 0.067797 -0.16949 0.15254 -0.16949 l0.20339 0 c0.11864 0 0.13559 0.067797 0.13559 0.18644 l0 2.4576 l2.1017 0 c0.11864 0 0.22017 0.084746 0.22017 0.22034 l0 0.81356 c0 0.11864 -0.10153 0.20339 -0.22017 0.20339 l-1.7798 0 c-0.13559 0 -0.25424 -0.016949 -0.33898 -0.050847 l0 4 c0 1.322 0.084746 2.0847 1.1017 2.0847 c0.50847 0 0.76271 -0.08458 1.0339 -0.16933 c0.16966 -0.050847 0.30525 -0.017115 0.33915 0.11848 z M59.08454915254237 23.72898 c0.016949 0.15238 -0.017776 0.27085 -0.15337 0.27085 l-0.72881 0 c-0.32203 0 -0.45763 -0.20322 -0.45763 -0.47441 l0 -4.678 c0 -1.2881 -0.81356 -2.1863 -2.3051 -2.1863 c-1.2542 0 -2.2203 0.62695 -3.0337 1.4236 l0 5.6949 c0 0.067797 -0.016949 0.11864 -0.050847 0.16949 c-0.033732 0.033898 -0.08458 0.050681 -0.13543 0.050681 l-0.89814 0 c-0.050847 0 -0.084746 -0.016784 -0.11864 -0.050681 c-0.050847 -0.033898 -0.067631 -0.084746 -0.067631 -0.16949 l0 -12.119 c0 -0.54237 -0.067797 -0.74576 -0.10169 -0.94915 c-0.016784 -0.15254 0.034064 -0.27119 0.15271 -0.27119 l0.77966 0 c0.27119 0 0.44068 0.16949 0.44068 0.4239 l0 5.9322 c0.72881 -0.62712 1.7797 -1.3051 3.1525 -1.3051 c1.7458 0 3.4578 1.0339 3.4578 3.1863 l0 3.8136 c0 0.44085 0.033732 0.84746 0.067631 1.2375 z M68.0337033898305 20.3731 c0.47458 0 0.81356 -0.18661 0.81356 -0.79678 c0 -2.1695 -1.678 -4.0847 -4.1017 -4.0847 c-2.3559 0 -4.1695 1.8814 -4.1695 4.3051 c0 2.5085 1.9153 4.3047 4.2881 4.3047 c1.4915 0 2.661 -0.71153 3.4237 -1.6946 c0.084746 -0.11864 0.067797 -0.20339 -0.033898 -0.30508 l-0.22034 -0.28814 c-0.10153 -0.13559 -0.22034 -0.11864 -0.33898 -0.016784 c-0.64407 0.64407 -1.5763 1.1525 -2.7119 1.1525 c-1.8136 0 -2.8983 -1.2712 -3.0507 -2.5763 l6.1015 0 z M61.915103389830506 19.339 c0.033898 -1.1356 0.9322 -2.661 2.8136 -2.661 s2.7458 1.5763 2.7966 2.661 l-5.6102 0 z  M79.03385084745761 15.5256 c2 0 3.8981 1.6439 3.8981 4.2032 c0 2.4236 -1.4915 4.3725 -3.8983 4.3725 c-1.0339 0 -1.9661 -0.38949 -2.661 -0.89797 l0 0.27119 c0 0.33898 -0.33898 0.52542 -0.61017 0.52542 l-0.47458 0 c-0.10186 0 -0.18644 -0.08458 -0.18644 -0.20322 l0 -12.119 c0 -0.42373 -0.067797 -0.67814 -0.10169 -0.9661 c-0.016784 -0.15254 0.034064 -0.27119 0.15271 -0.27119 l0.77966 0 c0.27119 0 0.44068 0.16949 0.44068 0.4239 l0 5.4576 c0.61017 -0.42373 1.4576 -0.79661 2.661 -0.79661 z M78.83035084745762 22.9153 c1.661 0 2.8475 -1.2885 2.8475 -3.1866 c0 -2.0678 -1.5254 -3 -2.8475 -3 c-0.94915 0 -1.7627 0.32203 -2.4576 0.81356 l0 4.5424 c0.64407 0.44085 1.4407 0.83068 2.4576 0.83068 z M91.88116101694915 20.3731 c0.47458 0 0.81356 -0.18661 0.81356 -0.79678 c0 -2.1695 -1.678 -4.0847 -4.1017 -4.0847 c-2.3559 0 -4.1695 1.8814 -4.1695 4.3051 c0 2.5085 1.9153 4.3047 4.2881 4.3047 c1.4915 0 2.661 -0.71153 3.4237 -1.6946 c0.084746 -0.11864 0.067797 -0.20339 -0.033898 -0.30508 l-0.22034 -0.28814 c-0.10153 -0.13559 -0.22034 -0.11864 -0.33898 -0.016784 c-0.64407 0.64407 -1.5763 1.1525 -2.7119 1.1525 c-1.8136 0 -2.8983 -1.2712 -3.0507 -2.5763 l6.1015 0 z M85.76256101694915 19.339 c0.033898 -1.1356 0.9322 -2.661 2.8136 -2.661 s2.7458 1.5763 2.7966 2.661 l-5.6102 0 z M94.13559305084745 22.8476 l0.42356 -0.61034 c0.084746 -0.13559 0.15254 -0.16949 0.28814 -0.10169 c0.050847 0.050847 1.1017 0.76271 2.3898 0.76271 c1.4237 0 1.8644 -0.61017 1.8644 -1.1693 c0 -0.81356 -0.94915 -1.1186 -2.1017 -1.4237 c-1.6949 -0.44068 -2.8136 -1.1695 -2.8136 -2.4576 c0 -1.2373 1.0678 -2.3559 3.0339 -2.3559 c1.2203 0 2.1864 0.52542 2.7627 0.86441 c0.13559 0.067797 0.18644 0.18644 0.11864 0.28814 l-0.44068 0.64407 c-0.067797 0.11864 -0.16949 0.15254 -0.28814 0.084746 c-0.66102 -0.33898 -1.322 -0.64407 -2.1525 -0.64407 c-1.4407 0 -1.6949 0.77966 -1.6949 1.1695 c0 0.76271 0.98305 1.0678 1.9492 1.339 c1.5086 0.40678 3.051 1.0508 3.051 2.4917 c0 1.4236 -1.2881 2.3895 -3.2881 2.3895 c-1.3729 0 -2.6102 -0.6778 -3.0339 -1.0168 c-0.084746 -0.067797 -0.11864 -0.18644 -0.067797 -0.25424 z M107.11843559322033 23.50864 c0.050847 0.10169 -0.050681 0.18678 -0.16933 0.25458 c-0.3222 0.16949 -0.89847 0.32169 -1.5425 0.32169 c-1.7627 0 -2.1864 -1.0169 -2.1864 -3.1186 l0 -4.1186 l-1.0508 0 c-0.11864 0 -0.20339 -0.067797 -0.20339 -0.20339 l0 -0.25424 c0 -0.10169 0.016949 -0.16949 0.11864 -0.23729 c1.0339 -0.49136 1.5085 -1 1.9322 -3.0169 c0.033898 -0.10169 0.067797 -0.16949 0.15254 -0.16949 l0.20339 0 c0.11864 0 0.13559 0.067797 0.13559 0.18644 l0 2.4576 l2.1017 0 c0.11864 0 0.22017 0.084746 0.22017 0.22034 l0 0.81356 c0 0.11864 -0.10153 0.20339 -0.22017 0.20339 l-1.7798 0 c-0.13559 0 -0.25424 -0.016949 -0.33898 -0.050847 l0 4 c0 1.322 0.084746 2.0847 1.1017 2.0847 c0.50847 0 0.76271 -0.08458 1.0339 -0.16933 c0.16966 -0.050847 0.30525 -0.017115 0.33915 0.11848 z  M120.40658474576271 20.3731 c0.47458 0 0.81356 -0.18661 0.81356 -0.79678 c0 -2.1695 -1.678 -4.0847 -4.1017 -4.0847 c-2.3559 0 -4.1695 1.8814 -4.1695 4.3051 c0 2.5085 1.9153 4.3047 4.2881 4.3047 c1.4915 0 2.661 -0.71153 3.4237 -1.6946 c0.084746 -0.11864 0.067797 -0.20339 -0.033898 -0.30508 l-0.22034 -0.28814 c-0.10153 -0.13559 -0.22034 -0.11864 -0.33898 -0.016784 c-0.64407 0.64407 -1.5763 1.1525 -2.7119 1.1525 c-1.8136 0 -2.8983 -1.2712 -3.0507 -2.5763 l6.1015 0 z M114.28798474576271 19.339 c0.033898 -1.1356 0.9322 -2.661 2.8136 -2.661 s2.7458 1.5763 2.7966 2.661 l-5.6102 0 z M130.13540677966103 23.71203 c0.084746 0.13559 0.00016552 0.2878 -0.11848 0.2878 l-1.0169 0 c-0.11864 0 -0.16949 -0.067631 -0.22034 -0.15238 l-2.339 -3.1864 l-2.322 3.1864 c-0.067797 0.10169 -0.13559 0.15254 -0.25424 0.15254 l-0.9661 0 c-0.13559 0 -0.22034 -0.16933 -0.13559 -0.28797 l2.8814 -3.8983 l-2.8983 -3.9153 c-0.084746 -0.11864 0 -0.28814 0.15254 -0.28814 l0.9661 0 c0.11864 0 0.18644 0.050847 0.25424 0.15254 l2.322 3.2203 l2.339 -3.2203 c0.050847 -0.084746 0.11864 -0.15254 0.23729 -0.15254 l1 0 c0.13559 0 0.22034 0.15254 0.11848 0.28814 l-2.9153 3.9153 z M136.08469830508474 15.5256 c2 0 3.8981 1.6441 3.8981 4.2034 c0 2.4236 -1.4915 4.3725 -3.8983 4.3725 c-1.0339 0 -1.9661 -0.38949 -2.661 -0.89797 l0 5.2541 c0 0.33898 -0.33898 0.52542 -0.61017 0.52542 l-0.47458 0 c-0.10186 0 -0.18644 -0.08458 -0.18644 -0.20339 l0 -11.932 c0 -0.42373 -0.067797 -0.67797 -0.10169 -0.9661 c-0.016784 -0.15238 0.034064 -0.27119 0.15271 -0.27119 l0.77966 0 c0.27119 0 0.44068 0.16949 0.44068 0.42373 l0 0.28814 c0.61017 -0.42373 1.4576 -0.79661 2.661 -0.79661 z M135.88119830508472 22.915399999999998 c1.661 0 2.8475 -1.2885 2.8475 -3.1866 c0 -2.0678 -1.5254 -3 -2.8475 -3 c-0.94915 0 -1.7627 0.32203 -2.4576 0.81356 l0 4.5424 c0.64407 0.44085 1.4407 0.83068 2.4576 0.83068 z M145.86420847457626 24.10153 c2.3559 0 4.322 -1.8812 4.322 -4.288 c0 -2.4576 -1.9661 -4.339 -4.322 -4.339 c-2.3898 0 -4.3559 1.8814 -4.3559 4.339 c0 2.4068 1.9661 4.288 4.3559 4.288 z M145.86420847457626 22.8985 c-1.7797 0 -3.1017 -1.4576 -3.1017 -3.0847 c0 -1.661 1.322 -3.1186 3.1017 -3.1186 c1.7458 0 3.0678 1.4576 3.0678 3.1186 c0 1.6271 -1.322 3.0847 -3.0678 3.0847 z M157.474406779661 16.1019 c0.15254 0.10169 0.18661 0.16933 0.10186 0.28797 l-0.49153 0.71186 c-0.050847 0.10169 -0.13559 0.11864 -0.25424 0.067797 c-0.47458 -0.25424 -0.84746 -0.42373 -1.4746 -0.42373 c-0.61017 0 -1.4914 0.25424 -2.1527 1.3051 l0 5.7288 c0 0.11864 -0.067797 0.22017 -0.18644 0.22017 l-0.89831 0 c-0.11881 0 -0.18661 -0.10153 -0.18661 -0.22017 l0 -7.9661 c0 -0.10169 0.067797 -0.20339 0.18661 -0.20339 l0.64407 0 c0.27119 0 0.44068 0.27119 0.44068 0.49153 l0 0.47458 c0.71186 -0.67797 1.5085 -1.0339 2.3898 -1.0339 c0.84746 0 1.5254 0.3222 1.8814 0.55949 z M163.7964016949152 23.50864 c0.050847 0.10169 -0.050681 0.18678 -0.16933 0.25458 c-0.3222 0.16949 -0.89847 0.32169 -1.5425 0.32169 c-1.7627 0 -2.1864 -1.0169 -2.1864 -3.1186 l0 -4.1186 l-1.0508 0 c-0.11864 0 -0.20339 -0.067797 -0.20339 -0.20339 l0 -0.25424 c0 -0.10169 0.016949 -0.16949 0.11864 -0.23729 c1.0339 -0.49136 1.5085 -1 1.9322 -3.0169 c0.033898 -0.10169 0.067797 -0.16949 0.15254 -0.16949 l0.20339 0 c0.11864 0 0.13559 0.067797 0.13559 0.18644 l0 2.4576 l2.1017 0 c0.11864 0 0.22017 0.084746 0.22017 0.22034 l0 0.81356 c0 0.11864 -0.10153 0.20339 -0.22017 0.20339 l-1.7798 0 c-0.13559 0 -0.25424 -0.016949 -0.33898 -0.050847 l0 4 c0 1.322 0.084746 2.0847 1.1017 2.0847 c0.50847 0 0.76271 -0.08458 1.0339 -0.16933 c0.16966 -0.050847 0.30525 -0.017115 0.33915 0.11848 z"></path></g><g id="SvgjsG1141" rel="mainfill" name="symbol" feature="symbol" xmlns:name="symbol_mainfill" fill="#c48e38" transform="translate(-7.22044219847627, 4.750564460086673) scale(1.009821976074121)"><g><g><g><path d="M50.3793945,84.8139648H38.6132812c-3.2202148,0-5.840332-2.6201172-5.840332-5.840332v-5.1279297     c0-3.2207031,2.6201172-5.8408203,5.840332-5.8408203h11.7661133c3.2202148,0,5.840332,2.6201172,5.840332,5.8408203v5.1279297     C56.2197266,82.1938477,53.5996094,84.8139648,50.3793945,84.8139648z M38.6132812,71.0048828     c-1.5664062,0-2.840332,1.2744141-2.840332,2.8408203v5.1279297c0,1.5664062,1.2739258,2.840332,2.840332,2.840332h11.7661133     c1.5664062,0,2.840332-1.2739258,2.840332-2.840332v-5.1279297c0-1.5664062-1.2739258-2.8408203-2.840332-2.8408203H38.6132812z"></path></g></g><g><path d="M44.6523438,89.8500977c-3.6040039,0-6.5356445-2.9321289-6.5356445-6.5361328c0-0.8286133,0.6713867-1.5,1.5-1.5    s1.5,0.6713867,1.5,1.5c0,1.949707,1.5859375,3.5361328,3.5356445,3.5361328s3.5361328-1.5864258,3.5361328-3.5361328    c0-0.8286133,0.6713867-1.5,1.5-1.5s1.5,0.6713867,1.5,1.5C51.1884766,86.9179688,48.2563477,89.8500977,44.6523438,89.8500977z"></path></g><g><path d="M28.1787109,49.2866211c-0.4628906,0-0.9194336-0.2133789-1.2128906-0.6157227    c-0.4887695-0.6689453-0.3417969-1.6074219,0.3271484-2.0957031l47.7387695-34.840332    c0.6679688-0.4892578,1.6074219-0.3417969,2.0957031,0.3271484c0.4887695,0.6689453,0.3417969,1.6074219-0.3271484,2.0957031    l-47.7387695,34.840332C28.7949219,49.1928711,28.4853516,49.2866211,28.1787109,49.2866211z"></path></g><g><path d="M24.4897461,42.0981445c-0.1572266,0-0.3149414-0.0244141-0.4677734-0.074707    c-0.4589844-0.1508789-0.8168945-0.5131836-0.9624023-0.9736328c-0.9477539-2.9995117-1.2592773-6.1362305-0.9257812-9.3227539    c1.0976562-10.5087891,9.4858398-18.9780273,19.9453125-20.1376953c2.9506836-0.3261719,5.8696289-0.09375,8.6772461,0.6928711    c0.7978516,0.2236328,1.2631836,1.0512695,1.0395508,1.8491211c-0.2231445,0.7988281-1.0541992,1.2646484-1.8491211,1.0395508    c-2.4355469-0.6821289-4.9736328-0.8833008-7.5366211-0.6000977c-9.0678711,1.0058594-16.340332,8.3520508-17.2929688,17.4677734    c-0.2143555,2.0517578-0.1225586,4.0771484,0.2719727,6.0458984l36.1049805-26.3496094    c0.6689453-0.4892578,1.6079102-0.3417969,2.0957031,0.3271484c0.4887695,0.6689453,0.3417969,1.6074219-0.3271484,2.0957031    L25.3740234,41.8095703C25.1137695,41.9995117,24.8037109,42.0981445,24.4897461,42.0981445z"></path></g><g><path d="M51.9326172,71.0048828H37.3725586c-2.3945312,0-4.3691406-1.8022461-4.5932617-4.1923828l-0.0756836-0.809082    c-0.3261719-3.4765625-1.1450195-6.9741211-2.4350586-10.3959961c-0.237793-0.6303711-0.0253906-1.3422852,0.519043-1.7402344    l36.0458984-26.3300781c0.668457-0.4873047,1.6069336-0.3432617,2.0961914,0.3266602    c0.4882812,0.6689453,0.3422852,1.6074219-0.3266602,2.0961914L33.4663086,55.6259766    c1.1601562,3.328125,1.9072266,6.7197266,2.2241211,10.0966797l0.0756836,0.809082    c0.0791016,0.840332,0.7695312,1.4731445,1.6064453,1.4731445h14.5600586c0.8369141,0,1.5273438-0.6333008,1.605957-1.4726562    l0.0410156-0.4375c0.7260742-7.7416992,3.2241211-14.8935547,7.2250977-20.6821289    c1.6987305-2.4575195,2.7944336-5.1977539,3.2553711-8.1435547c0.1279297-0.8183594,0.8974609-1.3774414,1.7138672-1.25    c0.8183594,0.1279297,1.3779297,0.8955078,1.25,1.7138672C66.5,41.0810547,65.2026367,44.3261719,63.2724609,47.1186523    c-3.7089844,5.3662109-6.027832,12.0249023-6.7055664,19.2563477l-0.0410156,0.4375    C56.3012695,69.2026367,54.3266602,71.0048828,51.9326172,71.0048828z"></path></g><g><path d="M75.7216797,19.0288086c-0.0751953,0-0.1508789-0.0053711-0.2270508-0.0170898    c-0.8193359-0.1245117-1.3823242-0.8891602-1.2578125-1.7080078l0.5498047-3.6206055l-3.6206055-0.550293    c-0.8193359-0.1245117-1.3823242-0.8891602-1.2578125-1.7080078c0.125-0.8193359,0.8959961-1.3823242,1.7080078-1.2578125    l5.1040039,0.7753906c0.3935547,0.0595703,0.7470703,0.2734375,0.9829102,0.59375s0.3349609,0.7211914,0.2749023,1.1142578    l-0.7753906,5.1035156C77.0898438,18.496582,76.4506836,19.0288086,75.7216797,19.0288086z"></path></g><g><path d="M62.2958984,19.0288086c-0.0751953,0-0.1508789-0.0053711-0.2270508-0.0170898    c-0.8193359-0.1245117-1.3823242-0.8891602-1.2578125-1.7080078l0.5498047-3.6206055l-3.6206055-0.550293    c-0.8193359-0.1245117-1.3823242-0.8891602-1.2578125-1.7080078c0.1245117-0.8193359,0.8935547-1.3823242,1.7080078-1.2578125    l5.1040039,0.7753906c0.3935547,0.0595703,0.7470703,0.2734375,0.9829102,0.59375s0.3349609,0.7211914,0.2749023,1.1142578    l-0.7753906,5.1035156C63.6640625,18.496582,63.0249023,19.0288086,62.2958984,19.0288086z"></path></g><g><path d="M68.1518555,34.1513672c-0.0751953,0-0.1508789-0.0053711-0.2270508-0.0170898    c-0.8193359-0.1240234-1.3823242-0.8891602-1.2578125-1.7080078l0.5498047-3.6210938l-3.6210938-0.5498047    c-0.8193359-0.1240234-1.3823242-0.8891602-1.2578125-1.7080078c0.125-0.8188477,0.8969727-1.3793945,1.7080078-1.2578125    l5.1040039,0.7749023c0.8193359,0.1240234,1.3823242,0.8891602,1.2578125,1.7080078l-0.7749023,5.1040039    C69.5200195,33.6191406,68.8808594,34.1513672,68.1518555,34.1513672z"></path></g></g></g></svg>